# xmcd
#
# Track frame offsets:
#  150
#  12121
#  29415
#  42960
#  60847
#  76736
#  94196
#  108891
#  130643
#  142338
#  160531
#  170153
#
# Disc length: 2432 seconds
#
# Revision: 0
# Processed by: cddbd v1.4PL0 Copyright (c) Steve Scherf et al.
# Submitted via: AltoMP3_Maker 3.0
#
DISCID=8d097e0c
DTITLE=Dudley Connell and Don Rigsby - Meet Me By The Moon Light
DYEAR=1900
DGENRE=
TTITLE0=Meet Me By The Moon Light
TTITLE1=Orphan Girl
TTITLE2=I'm Troubled, I'm Troubled
TTITLE3=Oh Lovin' Babe
TTITLE4=Jealous Lover
TTITLE5=Good-bye Maggie
TTITLE6=Short Life of Trouble
TTITLE7=Dark and Thorny
TTITLE8=Rollin' On
TTITLE9=Dying Boy's Prayer
TTITLE10=Our Darlin's Gone
TTITLE11=Old Ship of Zion
EXTD=
EXTT0=
EXTT1=
EXTT2=
EXTT3=
EXTT4=
EXTT5=
EXTT6=
EXTT7=
EXTT8=
EXTT9=
EXTT10=
EXTT11=
PLAYORDER=
